<mxfile host="app.diagrams.net" modified="2024-03-26T14:35:58.449Z" agent="Mozilla/5.0 (Windows NT 10.0; Win64; x64) AppleWebKit/537.36 (KHTML, like Gecko) Chrome/123.0.0.0 Safari/537.36" version="24.2.0" etag="mTILeBiCIgj_0hfSfTQ7" type="github">
  <diagram name="Page-1" id="sAlkdOw4SHV71DBZQhUU">
    <mxGraphModel>
      <root>
        <mxCell id="0" />
        <mxCell id="1" parent="0" />
      </root>
    </mxGraphModel>
  </diagram>
</mxfile>
